<svg xmlns="http://www.w3.org/2000/svg" viewBox="0 0 700 1500" width="700" height="1500">
  <title>Porsche Taycan – Oben</title>
  <g fill="none" stroke="#000" stroke-linecap="round" stroke-linejoin="round">
    <!-- Dicke Außenkontur -->
    <path stroke-width="11" d="M 350 70
      C 240 70, 166 102, 148 190
      C 132 280, 124 460, 124 730
      C 124 1000, 132 1180, 152 1268
      C 172 1348, 260 1382, 350 1382
      C 440 1382, 528 1348, 548 1268
      C 568 1180, 576 1000, 576 730
      C 576 460, 568 280, 552 190
      C 534 102, 460 70, 350 70 Z" />
    <!-- Frunk-Fugen (V-Form) -->
    <path stroke-width="4" d="M 205 210 C 272 192, 428 192, 495 210" />
    <path stroke-width="4" d="M 214 216 C 206 288, 200 346, 196 394" />
    <path stroke-width="4" d="M 486 216 C 494 288, 500 346, 504 394" />
    <!-- Ladeklappe vorn links -->
    <path stroke-width="3" d="M 138 470 L 170 466 L 172 486 L 140 490 Z" />
    <!-- Scheibenwurzel -->
    <path stroke-width="2.5" d="M 186 392 C 270 368, 430 368, 514 392" />
    <!-- Frontscheibe mit Doppellinie -->
    <path stroke-width="5" d="M 176 400
      C 262 372, 438 372, 524 400
      C 512 462, 488 508, 468 532
      C 392 518, 308 518, 232 532
      C 212 508, 188 462, 176 400 Z" />
    <path stroke-width="2.5" d="M 196 412 C 272 388, 428 388, 504 412" />
    <!-- Panorama-Glasdach mit Mittelsteg -->
    <path stroke-width="4" d="M 232 532 L 226 898" />
    <path stroke-width="4" d="M 468 532 L 474 898" />
    <path stroke-width="2.5" d="M 350 545 L 350 888" />
    <path stroke-width="2.5" d="M 230 700 L 470 700" />
    <!-- Heckscheibe mit Doppellinie -->
    <path stroke-width="5" d="M 226 898
      C 300 912, 400 912, 474 898
      C 486 948, 500 988, 512 1014
      C 406 996, 294 996, 188 1014
      C 200 988, 214 948, 226 898 Z" />
    <path stroke-width="2.5" d="M 240 906 C 306 918, 394 918, 460 906" />
    <!-- Dachantenne -->
    <path stroke-width="3" d="M 336 1038 C 344 1030, 356 1030, 364 1038" />
    <!-- Außenspiegel mit Innenzeichnung -->
    <path stroke-width="4" d="M 126 560 C 98 552, 82 560, 80 576 C 94 586, 114 580, 128 570" />
    <path stroke-width="2.5" d="M 96 566 C 88 570, 86 576, 92 580" />
    <path stroke-width="4" d="M 574 560 C 602 552, 618 560, 620 576 C 606 586, 586 580, 572 570" />
    <path stroke-width="2.5" d="M 604 566 C 612 570, 614 576, 608 580" />
    <!-- Türfugen (4 Türen) -->
    <path stroke-width="4" d="M 124 622 C 142 620, 160 618, 176 616" />
    <path stroke-width="4" d="M 576 622 C 558 620, 540 618, 524 616" />
    <path stroke-width="4" d="M 124 864 C 140 862, 156 860, 170 858" />
    <path stroke-width="4" d="M 576 864 C 560 862, 544 860, 530 858" />
    <!-- Heckspoiler-Fugen -->
    <path stroke-width="4" d="M 200 1060 C 290 1076, 410 1076, 500 1060" />
    <path stroke-width="2.5" d="M 210 1080 C 296 1094, 404 1094, 490 1080" />
    <!-- Heckleuchtenband mit Echo -->
    <path stroke-width="6" d="M 186 1296 C 288 1316, 412 1316, 514 1296" />
    <path stroke-width="3" d="M 210 1320 C 300 1336, 400 1336, 490 1320" />
  </g>
</svg>
