<svg xmlns="http://www.w3.org/2000/svg" viewBox="0 0 700 1500" width="700" height="1500">
  <title>Porsche Taycan – Unten</title>
  <g fill="none" stroke="#000" stroke-linecap="round" stroke-linejoin="round">
    <!-- Dicke Außenkontur -->
    <path stroke-width="11" d="M 350 70
      C 240 70, 166 102, 148 190
      C 132 280, 124 460, 124 730
      C 124 1000, 132 1180, 152 1268
      C 172 1348, 260 1382, 350 1382
      C 440 1382, 528 1348, 548 1268
      C 568 1180, 576 1000, 576 730
      C 576 460, 568 280, 552 190
      C 534 102, 460 70, 350 70 Z" />
    <!-- Front-Unterfahrschutz -->
    <path stroke-width="2.5" d="M 240 200 C 300 188, 400 188, 460 200" />
    <path stroke-width="2.5" d="M 250 258 L 450 258" />
    <!-- Räder -->
    <rect x="94" y="290" width="54" height="190" rx="27" stroke-width="5" />
    <rect x="552" y="290" width="54" height="190" rx="27" stroke-width="5" />
    <rect x="94" y="990" width="54" height="195" rx="27" stroke-width="5" />
    <rect x="552" y="990" width="54" height="195" rx="27" stroke-width="5" />
    <!-- Achsen und Querlenker -->
    <path stroke-width="4" d="M 148 385 L 552 385" />
    <path stroke-width="4" d="M 148 1088 L 552 1088" />
    <path stroke-width="2.5" d="M 148 340 L 296 368 M 552 340 L 404 368" />
    <path stroke-width="2.5" d="M 148 1140 L 296 1108 M 552 1140 L 404 1108" />
    <!-- E-Motoren mit Wellenzeichnung -->
    <rect x="296" y="342" width="108" height="76" rx="16" stroke-width="5" />
    <circle cx="350" cy="380" r="14" stroke-width="2.5" />
    <rect x="296" y="1050" width="108" height="76" rx="16" stroke-width="5" />
    <circle cx="350" cy="1088" r="14" stroke-width="2.5" />
    <!-- Flaches Batteriepaket mit Doppelrahmen und Modulrippen -->
    <rect x="188" y="510" width="324" height="430" rx="26" stroke-width="5" />
    <rect x="202" y="524" width="296" height="402" rx="20" stroke-width="2.5" />
    <path stroke-width="4" d="M 202 618 L 498 618 M 202 726 L 498 726 M 202 834 L 498 834" />
    <!-- Hinterer Querträger -->
    <path stroke-width="3" d="M 210 1240 L 490 1240" />
    <!-- Diffusor mit Finnen -->
    <path stroke-width="4" d="M 250 1300 L 254 1360 M 350 1306 L 350 1366 M 450 1300 L 446 1360" />
  </g>
</svg>
