<?xml version="1.0" encoding="UTF-8"?><svg id="Ebene_1" xmlns="http://www.w3.org/2000/svg" viewBox="0 0 1080 1080"><defs><style>.cls-1{fill:#1d1d1b;}</style></defs><path class="cls-1" d="M899.35,401.75h-266.23l-.12.21h-334.1l-159.52,276.3h107.72l42.85-74.21h192.86l46.65-80.79h-192.86l19.47-33.72h226.38l-108.84,188.52h107.72l38.93-67.43h96.21l13.08,67.43h114.71l-15.49-77.5c22.96-8.43,44.91-21.17,65.42-37.83,20.83-16.86,37.3-35.77,49.29-56.53,33.82-57.15,13.16-105.05-44.14-104.43ZM835.56,506.19c-3.68,6.37-9.15,11.92-16.6,16.65-7.13,4.52-13.99,6.78-20.57,6.78h-131.37l27.18-47.08h131.37c13.16,0,17.59,10.48,9.99,23.64Z"/></svg>