<?xml version="1.0" encoding="UTF-8"?><svg id="Ebene_1" xmlns="http://www.w3.org/2000/svg" viewBox="0 0 1080 1080"><defs><style>.cls-1{fill:#1d1d1b;}.cls-2{fill:#fff;}</style></defs><rect class="cls-1" x="0" width="1080" height="1080"/><path class="cls-2" d="M814.45,392.53h-208.89l-.09.16h-262.15l-125.17,216.79h84.52l33.62-58.23h151.32l36.6-63.39h-151.32l15.27-26.45h177.62l-85.4,147.92h84.52l30.55-52.91h75.49l10.26,52.91h90.01l-12.15-60.81c18.01-6.61,35.24-16.61,51.33-29.68,16.35-13.23,29.27-28.07,38.68-44.36,26.53-44.84,10.33-82.43-34.63-81.94ZM764.4,474.48c-2.89,5-7.18,9.36-13.03,13.07-5.6,3.55-10.98,5.32-16.14,5.32h-103.07l21.33-36.94h103.07c10.32,0,13.8,8.23,7.84,18.55Z"/><path class="cls-2" d="M152.99,671.46c7.01.35,16.86.84,16.84,7.14,0,7.18-8.23,8.87-17.05,8.87-8.8-.01-16.12-1.08-17.05-8.87h10.26c1.12,1.94,3.72,2.45,6.79,2.45s6.79-.51,6.79-2.45c0-1.1-3.05-1.27-6.99-1.46-7.01-.35-16.86-.84-16.84-7.12,0-7.18,8.23-8.89,17.05-8.89,8.8.05,16.11,1.04,17.05,8.89h-10.26c-1.12-1.98-3.72-2.45-6.79-2.45s-6.79.45-6.79,2.45c0,1.11,3.04,1.25,6.99,1.44Z"/><path class="cls-2" d="M245,661.77c5.18-.06,9.57,4.3,9.49,9.49.08,5.18-4.32,9.57-9.49,9.49h-14.41v6.13h-9.79v-25.12h24.21ZM242.55,673.4c.58,0,1.09-.21,1.49-.62.43-.43.64-.93.64-1.51s-.21-1.1-.64-1.51c-.41-.43-.91-.63-1.49-.63h-11.96v4.28h11.96Z"/><path class="cls-2" d="M339.43,673.38v1.83c.04,9.49-7.7,12.25-17.14,12.26-9.46-.01-17.2-2.77-17.16-12.26v-1.83c-.04-9.51,7.7-12.24,17.16-12.26,9.46,0,17.14,2.77,17.14,12.26ZM329.63,673.98c.06-4.09-3.35-4.84-7.35-4.89-4.02.05-7.42.8-7.36,4.89v.62c-.06,4.11,3.35,4.86,7.36,4.91,4-.05,7.4-.8,7.35-4.91v-.62Z"/><path class="cls-2" d="M414.88,661.75c5.18-.06,9.57,4.3,9.49,9.49,0,1.89-.5,3.61-1.51,5.14-.99,1.51-2.32,2.68-3.96,3.44l5.48,7.04h-10.43l-4.73-6.13h-8.75v6.13h-9.79v-25.12h24.21ZM400.47,669.1v4.28h11.94c.6,0,1.1-.21,1.51-.62.43-.43.64-.93.64-1.51,0-1.2-.95-2.15-2.15-2.15h-11.94Z"/><path class="cls-2" d="M485.96,686.9v-17.16h-11.65v-7.96h33.08v7.96h-11.64v17.16h-9.79Z"/><path class="cls-2" d="M601.83,661.77h11.03l-11.03,25.12h-11.64l-5.52-12.56-5.51,12.56h-11.65l-11.03-25.12h11.03l5.82,15.91,5.83-15.91h11.03l5.81,15.91,5.83-15.91Z"/><path class="cls-2" d="M668.19,661.77h11.65l13.48,25.12h-11.03l-1.98-4.3h-12.58l-1.98,4.3h-11.03l13.48-25.12ZM670.57,676.46h6.9l-3.44-7.42-3.46,7.42Z"/><path class="cls-2" d="M757.13,673.07h17.06v14.41h-4.89l-.49-3.91c-2.92,2.88-7.35,3.91-11.61,3.91-9.46-.03-17.2-2.77-17.16-12.26v-1.83c-.04-9.51,7.7-12.24,17.16-12.26,8.71,0,15.89,2.37,16.99,10.11h-10.41c-.62-.84-1.52-1.4-2.68-1.7-1.16-.3-2.47-.45-3.91-.45-4.02.05-7.42.8-7.37,4.89v.62c-.05,4.13,3.35,4.84,7.37,4.9,3.87,0,6.34-.23,7.81-2.13h-7.89v-4.3Z"/><path class="cls-2" d="M827.01,661.77h29.4v6.43h-19.6v3.22h19.6v5.81h-19.6v3.22h19.6v6.45h-29.4v-25.12Z"/><path class="cls-2" d="M934.45,661.74h9.81v25.12h-11.03l-13.5-15.34v15.34h-9.79v-25.12h13.48l11.03,13.31v-13.31Z"/></svg>