<svg xmlns="http://www.w3.org/2000/svg" viewBox="0 0 1600 1000">
  <defs>
    <linearGradient id="bg" x1="0" y1="0" x2="0.8" y2="1">
      <stop offset="0" stop-color="#181818"/>
      <stop offset="1" stop-color="#0c0c0c"/>
    </linearGradient>
  </defs>
  <rect width="1600" height="1000" fill="url(#bg)"/>
  <g fill="none" stroke="#5f5f5f" stroke-width="7" stroke-linecap="round" stroke-linejoin="round">
    <path d="M480 780 Q440 780 440 730 L455 420 Q458 350 520 345 Q620 338 640 400 L660 720 Q662 778 610 780 Z"/>
    <path d="M470 430 Q550 415 630 430"/>
    <path d="M960 780 Q920 780 920 730 L935 420 Q938 350 1000 345 Q1100 338 1120 400 L1140 720 Q1142 778 1090 780 Z"/>
    <path d="M950 430 Q1030 415 1110 430"/>
  </g>
  <g fill="none" stroke="#3a3a3a" stroke-width="5">
    <path d="M300 850 L1300 850"/>
    <path d="M760 380 L760 760"/>
  </g>
  <text x="800" y="940" text-anchor="middle" font-family="Segoe UI, sans-serif" font-size="30" letter-spacing="8" fill="#4a4a4a">FR SPORTWAGEN · BEISPIELBILD</text>
</svg>
