<svg xmlns="http://www.w3.org/2000/svg" viewBox="0 0 1600 1000">
  <defs>
    <linearGradient id="bg" x1="0" y1="0" x2="1" y2="0.7">
      <stop offset="0" stop-color="#0e0e0e"/>
      <stop offset="0.5" stop-color="#202020"/>
      <stop offset="1" stop-color="#101010"/>
    </linearGradient>
  </defs>
  <rect width="1600" height="1000" fill="url(#bg)"/>
  <g fill="none" stroke="#5f5f5f" stroke-width="7" stroke-linecap="round" stroke-linejoin="round">
    <path d="M180 650 Q210 610 300 600 Q380 520 520 495 Q700 465 880 480 Q1030 490 1120 560 Q1280 580 1370 620 Q1410 635 1405 650"/>
    <path d="M180 650 L1405 650"/>
    <path d="M520 495 Q660 478 830 488 L900 560"/>
    <path d="M540 560 L1080 565"/>
  </g>
  <g fill="none" stroke="#3a3a3a" stroke-width="5">
    <circle cx="450" cy="670" r="72"/>
    <circle cx="450" cy="670" r="30"/>
    <circle cx="1150" cy="670" r="72"/>
    <circle cx="1150" cy="670" r="30"/>
    <path d="M120 770 L1480 770"/>
  </g>
  <text x="800" y="890" text-anchor="middle" font-family="Segoe UI, sans-serif" font-size="30" letter-spacing="8" fill="#4a4a4a">FR SPORTWAGEN · BEISPIELBILD</text>
</svg>
